<svg height="12.739" viewBox="0 0 13.8 12.739" width="13.8" xmlns="http://www.w3.org/2000/svg">
    <g id="download-to-storage-drive" transform="translate(0 -39.453)">
        <g data-name="Group 1" id="Group_1" transform="translate(0 39.453)">
            <path
                d="M13.568,671.031A.768.768,0,0,0,13,670.8H9.156l-1.128,1.128a1.6,1.6,0,0,1-2.256,0L4.653,670.8H.8a.768.768,0,0,0-.564.232A.768.768,0,0,0,0,671.6v2.654a.768.768,0,0,0,.232.564.768.768,0,0,0,.564.232H13a.793.793,0,0,0,.8-.8V671.6A.767.767,0,0,0,13.568,671.031Zm-3.11,2.795a.521.521,0,1,1,.157-.373A.511.511,0,0,1,10.458,673.826Zm2.123,0a.52.52,0,1,1,.158-.373A.51.51,0,0,1,12.581,673.826Z"
                data-name="Path 33" fill="#8b8b8d" id="Path_33" transform="translate(0 -662.306)" />
            <path
                d="M200.537,48.319a.521.521,0,0,0,.746,0L205,44.6a.479.479,0,0,0,.116-.581.5.5,0,0,0-.489-.323H202.5V39.984a.538.538,0,0,0-.531-.531h-2.123a.538.538,0,0,0-.531.531V43.7h-2.123a.5.5,0,0,0-.489.323.479.479,0,0,0,.116.581Z"
                data-name="Path 34" fill="#8b8b8d" id="Path_34"
                transform="translate(-194.01 -39.453)" />
        </g>
    </g>
</svg>
